<svg width="300" height="300" viewBox="0 0 300 300" fill="none" xmlns="http://www.w3.org/2000/svg">
<path d="M60.9375 37.5H51.5625V93.75H60.9375V37.5Z" fill="white"/>
<path d="M60.9375 187.5H51.5625V262.5H60.9375V187.5Z" fill="white"/>
<path d="M154.688 37.5H145.312V150H154.688V37.5Z" fill="white"/>
<path d="M154.688 225H145.312V262.5H154.688V225Z" fill="white"/>
<path d="M248.438 225H239.062V262.5H248.438V225Z" fill="white"/>
<path d="M248.438 37.5H239.062V75H248.438V37.5Z" fill="white"/>
<path d="M79.6875 192.188H32.8125V89.0625H79.6875V192.188ZM42.1875 182.812H70.3125V98.4375H42.1875V182.812Z" fill="white"/>
<path d="M173.438 229.688H126.562V145.312H173.438V229.688ZM135.938 220.312H164.062V154.688H135.938V220.312Z" fill="white"/>
<path d="M267.188 229.688H220.312V70.3125H267.188V229.688ZM229.688 220.312H257.812V79.6875H229.688V220.312Z" fill="white"/>
</svg>
